# xmcd
#
# Track frame offsets:
#	150
#	3918
#	19714
#	42821
#	44640
#	71119
#	89351
#	107913
#	149577
#	168679
#	188997
#
# Disc length: 2702 seconds
#
# Revision: 0
# Processed by: cddbd v1.5.2PL0 Copyright (c) Steve Scherf et al.
# Submitted via: audiograbber 1.83.01
#
DISCID=9c0a8c0b
DTITLE=Acolytes Action Squad - Winkle Time
DYEAR=2007
DGENRE=Other
TTITLE0=Courtesans
TTITLE1=Music For Perspex
TTITLE2=Winle Time Itself
TTITLE3=Check: Weigh-In
TTITLE4=Against Old Masters
TTITLE5=Minimum Beam
TTITLE6=The Yak's Head Pts 1-2 (Feat: Turkees (Unwaged))
TTITLE7=Letters To The Master (Aas/Hotsnack Coagulation)
TTITLE8=Yak Buttons Pts 3-4 (Feat: Turkees (Re-Signed))
TTITLE9=Vasos And Uuvas - The Legends Of Blank Canvas
TTITLE10=Abreast
EXTD=
EXTT0=
EXTT1=
EXTT2=
EXTT3=
EXTT4=
EXTT5=
EXTT6=
EXTT7=
EXTT8=
EXTT9=
EXTT10=
PLAYORDER=
